<?xml version="1.0" encoding="UTF-8"?>
<!DOCTYPE svg PUBLIC "-//W3C//DTD SVG 1.1//EN" "http://www.w3.org/Graphics/SVG/1.1/DTD/svg11.dtd">
<!-- Creator: CorelDRAW X8 -->
<svg xmlns="http://www.w3.org/2000/svg" xml:space="preserve" width="1000px" height="1000px" version="1.1" style="shape-rendering:geometricPrecision; text-rendering:geometricPrecision; image-rendering:optimizeQuality; fill-rule:evenodd; clip-rule:evenodd"
viewBox="0 0 1000 1000"
 xmlns:xlink="http://www.w3.org/1999/xlink">
 <defs>
  <style type="text/css">
   <![CDATA[
    .fil0 {fill:#FEFEFE}
   ]]>
  </style>
 </defs>
 <g id="Слой_x0020_1">
  <metadata id="CorelCorpID_0Corel-Layer"/>
  <path class="fil0" d="M468 217c174,0 301,138 301,312 0,45 -16,99 -40,142 -33,57 -78,99 -97,104 -6,2 33,-100 65,-193 8,-21 14,-41 22,-61 2,-5 16,-45 16,-46 -10,-2 -22,-6 -32,-8 -14,-2 -32,-4 -47,-7 -12,-2 -22,-6 -27,-9 -29,-11 -42,-31 -58,-40 -4,-2 -19,-9 -22,-9 0,5 7,10 11,25 3,11 -4,17 -3,23 0,6 6,11 8,25 2,15 0,36 -1,56 -4,42 -21,86 -31,106 -5,11 -10,22 -16,30 -10,13 -18,24 -23,30 -1,1 -4,2 -4,1 0,-13 -1,-27 -1,-40 -1,-38 -4,-89 -9,-132 -2,-14 -5,-28 -7,-41 0,-1 0,-5 0,-5 3,-3 5,-5 7,-9 2,-4 2,-7 3,-7 4,0 7,4 11,9 3,5 8,23 8,22 -1,-1 6,-3 5,-5 0,0 -4,1 -4,0 0,-2 -1,-3 -1,-4 -3,-7 -6,-14 -8,-21 -3,-11 -14,-22 -16,-34 5,-5 59,-33 58,-35 0,-1 0,-2 0,-3 0,0 -7,-3 -18,-8 -8,-3 -18,-8 -29,-10 -17,-3 -38,1 -43,1 -3,0 -45,12 -48,17 -1,3 33,22 50,32 7,4 10,7 9,6 0,0 -2,5 -5,11 -2,6 -7,12 -10,18 -2,6 -5,12 -7,17 -2,8 -2,14 -3,14 -1,-1 -3,0 -4,0 -2,-1 3,3 5,4 1,-2 3,-10 6,-17 2,-5 4,-8 6,-9 3,-4 5,-5 7,-6 1,0 1,6 4,10 2,4 5,6 5,7 0,1 1,3 0,5 0,2 -7,42 -11,86 -4,59 -5,125 -6,127 -9,-6 -51,-53 -65,-127 -2,-12 -7,-31 -9,-49 -2,-21 -1,-41 1,-53 0,-5 6,-12 7,-16 1,-10 -6,-16 -4,-23 3,-14 14,-28 12,-28 -11,1 -29,15 -47,28 -10,8 -19,18 -35,22 -5,1 -13,5 -26,8 -17,3 -40,6 -58,10 -14,3 -24,7 -28,10 12,45 118,302 110,298 -87,-53 -140,-137 -140,-246 0,-174 132,-315 306,-315z"/>
  <path class="fil0" d="M441 415c0,0 12,-5 26,-5 8,0 17,1 25,6 0,3 -19,12 -26,12 -15,-2 -25,-13 -25,-13z"/>
  <path class="fil0" d="M404 392c26,-11 73,-28 129,1 5,2 -2,5 -7,4 -1,0 -18,-6 -21,-6 -16,-3 -33,-5 -49,-3 -13,1 -25,3 -28,4 -7,1 -13,5 -18,6 -6,1 -11,-4 -6,-6z"/>
 </g>
</svg>
